<mxfile host="Electron" agent="Mozilla/5.0 (Windows NT 10.0; Win64; x64) AppleWebKit/537.36 (KHTML, like Gecko) draw.io/26.2.2 Chrome/134.0.6998.178 Electron/35.1.2 Safari/537.36" version="26.2.2">
  <diagram name="PÃ¡gina-1" id="TPAtXWxRkIJJQsbXMNPa">
    <mxGraphModel dx="2610" dy="1565" grid="1" gridSize="10" guides="1" tooltips="1" connect="1" arrows="1" fold="1" page="1" pageScale="1" pageWidth="827" pageHeight="1169" math="0" shadow="0">
      <root>
        <mxCell id="0" />
        <mxCell id="1" parent="0" />
        <mxCell id="iqAs6xTmjVzmR_10nm-_-1" value="GameEngine" style="swimlane;fontStyle=1;align=center;verticalAlign=top;childLayout=stackLayout;horizontal=1;startSize=26;horizontalStack=0;resizeParent=1;resizeParentMax=0;resizeLast=0;collapsible=1;marginBottom=0;whiteSpace=wrap;html=1;" vertex="1" parent="1">
          <mxGeometry x="620" y="55" width="160" height="80" as="geometry" />
        </mxCell>
        <mxCell id="iqAs6xTmjVzmR_10nm-_-3" value="" style="line;strokeWidth=1;fillColor=none;align=left;verticalAlign=middle;spacingTop=-1;spacingLeft=3;spacingRight=3;rotatable=0;labelPosition=right;points=[];portConstraint=eastwest;strokeColor=inherit;" vertex="1" parent="iqAs6xTmjVzmR_10nm-_-1">
          <mxGeometry y="26" width="160" height="8" as="geometry" />
        </mxCell>
        <mxCell id="iqAs6xTmjVzmR_10nm-_-4" value="+ add (GamObject): void&lt;div&gt;+ delete (GamObject): void&lt;/div&gt;" style="text;strokeColor=none;fillColor=none;align=left;verticalAlign=top;spacingLeft=4;spacingRight=4;overflow=hidden;rotatable=0;points=[[0,0.5],[1,0.5]];portConstraint=eastwest;whiteSpace=wrap;html=1;" vertex="1" parent="iqAs6xTmjVzmR_10nm-_-1">
          <mxGeometry y="34" width="160" height="46" as="geometry" />
        </mxCell>
        <mxCell id="iqAs6xTmjVzmR_10nm-_-47" value="Polygon" style="html=1;whiteSpace=wrap;" vertex="1" parent="1">
          <mxGeometry x="540" y="370" width="110" height="50" as="geometry" />
        </mxCell>
        <mxCell id="iqAs6xTmjVzmR_10nm-_-53" value="" style="endArrow=none;html=1;endSize=12;startArrow=diamondThin;startSize=14;startFill=0;edgeStyle=orthogonalEdgeStyle;align=left;verticalAlign=bottom;rounded=0;endFill=0;" edge="1" parent="1" source="iqAs6xTmjVzmR_10nm-_-61" target="iqAs6xTmjVzmR_10nm-_-60">
          <mxGeometry x="-1" y="3" relative="1" as="geometry">
            <mxPoint x="60" y="340" as="sourcePoint" />
            <mxPoint x="190" y="340" as="targetPoint" />
            <Array as="points">
              <mxPoint x="410" y="225" />
              <mxPoint x="410" y="440" />
            </Array>
          </mxGeometry>
        </mxCell>
        <mxCell id="iqAs6xTmjVzmR_10nm-_-54" value="3..*" style="endArrow=none;html=1;endSize=12;startArrow=diamondThin;startSize=14;startFill=0;edgeStyle=orthogonalEdgeStyle;align=left;verticalAlign=bottom;rounded=0;endFill=0;" edge="1" parent="1" source="iqAs6xTmjVzmR_10nm-_-47" target="iqAs6xTmjVzmR_10nm-_-60">
          <mxGeometry x="-0.8737" y="5" relative="1" as="geometry">
            <mxPoint x="540" y="620" as="sourcePoint" />
            <mxPoint x="725" y="470" as="targetPoint" />
            <Array as="points">
              <mxPoint x="595" y="460" />
            </Array>
            <mxPoint as="offset" />
          </mxGeometry>
        </mxCell>
        <mxCell id="iqAs6xTmjVzmR_10nm-_-55" style="edgeStyle=orthogonalEdgeStyle;rounded=0;orthogonalLoop=1;jettySize=auto;html=1;endArrow=block;endFill=0;" edge="1" parent="1" source="iqAs6xTmjVzmR_10nm-_-58" target="iqAs6xTmjVzmR_10nm-_-56">
          <mxGeometry relative="1" as="geometry">
            <mxPoint x="301" y="765" as="sourcePoint" />
            <Array as="points">
              <mxPoint x="105" y="650" />
              <mxPoint x="105" y="650" />
            </Array>
            <mxPoint x="259" y="625" as="targetPoint" />
          </mxGeometry>
        </mxCell>
        <mxCell id="iqAs6xTmjVzmR_10nm-_-56" value="Line" style="html=1;whiteSpace=wrap;" vertex="1" parent="1">
          <mxGeometry x="50" y="550" width="110" height="50" as="geometry" />
        </mxCell>
        <mxCell id="iqAs6xTmjVzmR_10nm-_-58" value="LineSegment" style="html=1;whiteSpace=wrap;" vertex="1" parent="1">
          <mxGeometry x="50" y="670" width="110" height="50" as="geometry" />
        </mxCell>
        <mxCell id="iqAs6xTmjVzmR_10nm-_-59" value="Circle" style="html=1;whiteSpace=wrap;" vertex="1" parent="1">
          <mxGeometry x="420" y="370" width="110" height="50" as="geometry" />
        </mxCell>
        <mxCell id="iqAs6xTmjVzmR_10nm-_-60" value="Point" style="html=1;whiteSpace=wrap;" vertex="1" parent="1">
          <mxGeometry x="50" y="420" width="110" height="50" as="geometry" />
        </mxCell>
        <mxCell id="iqAs6xTmjVzmR_10nm-_-61" value="Collider" style="html=1;whiteSpace=wrap;" vertex="1" parent="1">
          <mxGeometry x="445" y="200" width="110" height="50" as="geometry" />
        </mxCell>
        <mxCell id="iqAs6xTmjVzmR_10nm-_-63" value="" style="endArrow=block;dashed=1;html=1;rounded=0;startArrow=none;startFill=0;endFill=0;" edge="1" parent="1" source="iqAs6xTmjVzmR_10nm-_-64" target="iqAs6xTmjVzmR_10nm-_-65">
          <mxGeometry width="50" height="50" relative="1" as="geometry">
            <mxPoint x="377" y="208" as="sourcePoint" />
            <mxPoint x="140" y="160" as="targetPoint" />
          </mxGeometry>
        </mxCell>
        <mxCell id="iqAs6xTmjVzmR_10nm-_-64" value="Transform" style="html=1;whiteSpace=wrap;" vertex="1" parent="1">
          <mxGeometry x="285" y="200" width="110" height="50" as="geometry" />
        </mxCell>
        <mxCell id="iqAs6xTmjVzmR_10nm-_-65" value="ITransform" style="html=1;whiteSpace=wrap;" vertex="1" parent="1">
          <mxGeometry x="70" y="200" width="110" height="50" as="geometry" />
        </mxCell>
        <mxCell id="iqAs6xTmjVzmR_10nm-_-66" value="IGameObject" style="html=1;whiteSpace=wrap;" vertex="1" parent="1">
          <mxGeometry x="70" y="70" width="110" height="50" as="geometry" />
        </mxCell>
        <mxCell id="iqAs6xTmjVzmR_10nm-_-67" value="GameObject" style="html=1;whiteSpace=wrap;" vertex="1" parent="1">
          <mxGeometry x="368" y="70" width="110" height="50" as="geometry" />
        </mxCell>
        <mxCell id="iqAs6xTmjVzmR_10nm-_-69" value="ICollider" style="html=1;whiteSpace=wrap;" vertex="1" parent="1">
          <mxGeometry x="645" y="200" width="110" height="50" as="geometry" />
        </mxCell>
        <mxCell id="iqAs6xTmjVzmR_10nm-_-70" style="edgeStyle=orthogonalEdgeStyle;rounded=0;orthogonalLoop=1;jettySize=auto;html=1;endArrow=block;endFill=0;exitX=0.5;exitY=0;exitDx=0;exitDy=0;entryX=0.5;entryY=1;entryDx=0;entryDy=0;" edge="1" parent="1" source="iqAs6xTmjVzmR_10nm-_-47" target="iqAs6xTmjVzmR_10nm-_-61">
          <mxGeometry relative="1" as="geometry">
            <mxPoint x="512" y="470" as="sourcePoint" />
            <Array as="points">
              <mxPoint x="590" y="370" />
              <mxPoint x="590" y="320" />
              <mxPoint x="500" y="320" />
            </Array>
            <mxPoint x="470" y="330" as="targetPoint" />
          </mxGeometry>
        </mxCell>
        <mxCell id="iqAs6xTmjVzmR_10nm-_-71" value="2" style="endArrow=none;html=1;endSize=12;startArrow=diamondThin;startSize=14;startFill=0;edgeStyle=orthogonalEdgeStyle;align=left;verticalAlign=bottom;rounded=0;endFill=0;" edge="1" parent="1" source="iqAs6xTmjVzmR_10nm-_-56" target="iqAs6xTmjVzmR_10nm-_-60">
          <mxGeometry x="-0.75" y="-5" relative="1" as="geometry">
            <mxPoint x="168" y="670" as="sourcePoint" />
            <mxPoint x="353" y="520" as="targetPoint" />
            <Array as="points">
              <mxPoint x="105" y="500" />
              <mxPoint x="105" y="500" />
            </Array>
            <mxPoint as="offset" />
          </mxGeometry>
        </mxCell>
        <mxCell id="iqAs6xTmjVzmR_10nm-_-72" value="" style="endArrow=block;dashed=1;html=1;rounded=0;startArrow=none;startFill=0;endFill=0;" edge="1" parent="1" source="iqAs6xTmjVzmR_10nm-_-67" target="iqAs6xTmjVzmR_10nm-_-66">
          <mxGeometry width="50" height="50" relative="1" as="geometry">
            <mxPoint x="377" y="78" as="sourcePoint" />
            <mxPoint x="140" y="30" as="targetPoint" />
          </mxGeometry>
        </mxCell>
        <mxCell id="iqAs6xTmjVzmR_10nm-_-73" value="" style="endArrow=block;dashed=1;html=1;rounded=0;startArrow=none;startFill=0;endFill=0;" edge="1" parent="1" source="iqAs6xTmjVzmR_10nm-_-61" target="iqAs6xTmjVzmR_10nm-_-69">
          <mxGeometry width="50" height="50" relative="1" as="geometry">
            <mxPoint x="725" y="320" as="sourcePoint" />
            <mxPoint x="620" y="320" as="targetPoint" />
          </mxGeometry>
        </mxCell>
        <mxCell id="iqAs6xTmjVzmR_10nm-_-74" value="0..*" style="endArrow=none;html=1;endSize=12;startArrow=diamondThin;startSize=14;startFill=0;edgeStyle=orthogonalEdgeStyle;align=left;verticalAlign=bottom;rounded=0;endFill=0;" edge="1" parent="1" source="iqAs6xTmjVzmR_10nm-_-1" target="iqAs6xTmjVzmR_10nm-_-67">
          <mxGeometry x="-0.5775" y="-5" relative="1" as="geometry">
            <mxPoint x="530" y="370" as="sourcePoint" />
            <mxPoint x="715" y="220" as="targetPoint" />
            <Array as="points" />
            <mxPoint as="offset" />
          </mxGeometry>
        </mxCell>
        <mxCell id="iqAs6xTmjVzmR_10nm-_-75" style="edgeStyle=orthogonalEdgeStyle;rounded=0;orthogonalLoop=1;jettySize=auto;html=1;endArrow=block;endFill=0;exitX=0.5;exitY=0;exitDx=0;exitDy=0;entryX=0.5;entryY=1;entryDx=0;entryDy=0;" edge="1" parent="1" source="iqAs6xTmjVzmR_10nm-_-59" target="iqAs6xTmjVzmR_10nm-_-61">
          <mxGeometry relative="1" as="geometry">
            <mxPoint x="456" y="370" as="sourcePoint" />
            <Array as="points">
              <mxPoint x="475" y="320" />
              <mxPoint x="500" y="320" />
            </Array>
            <mxPoint x="414" y="230" as="targetPoint" />
          </mxGeometry>
        </mxCell>
        <mxCell id="iqAs6xTmjVzmR_10nm-_-76" value="" style="endArrow=none;html=1;endSize=12;startArrow=diamondThin;startSize=14;startFill=0;edgeStyle=orthogonalEdgeStyle;align=left;verticalAlign=bottom;rounded=0;endFill=0;entryX=0.5;entryY=0;entryDx=0;entryDy=0;" edge="1" parent="1" source="iqAs6xTmjVzmR_10nm-_-67" target="iqAs6xTmjVzmR_10nm-_-64">
          <mxGeometry x="-1" y="3" relative="1" as="geometry">
            <mxPoint x="270" y="150" as="sourcePoint" />
            <mxPoint x="400" y="150" as="targetPoint" />
            <Array as="points">
              <mxPoint x="400" y="160" />
              <mxPoint x="340" y="160" />
            </Array>
          </mxGeometry>
        </mxCell>
        <mxCell id="iqAs6xTmjVzmR_10nm-_-77" value="" style="endArrow=none;html=1;endSize=12;startArrow=diamondThin;startSize=14;startFill=0;edgeStyle=orthogonalEdgeStyle;align=left;verticalAlign=bottom;rounded=0;endFill=0;entryX=0.5;entryY=0;entryDx=0;entryDy=0;" edge="1" parent="1" source="iqAs6xTmjVzmR_10nm-_-67" target="iqAs6xTmjVzmR_10nm-_-61">
          <mxGeometry x="-1" y="3" relative="1" as="geometry">
            <mxPoint x="470" y="150" as="sourcePoint" />
            <mxPoint x="600" y="150" as="targetPoint" />
            <Array as="points">
              <mxPoint x="450" y="160" />
              <mxPoint x="500" y="160" />
            </Array>
          </mxGeometry>
        </mxCell>
        <mxCell id="iqAs6xTmjVzmR_10nm-_-78" value="" style="endArrow=none;html=1;endSize=12;startArrow=diamondThin;startSize=14;startFill=0;edgeStyle=orthogonalEdgeStyle;align=left;verticalAlign=bottom;rounded=0;endFill=0;entryX=1;entryY=0.5;entryDx=0;entryDy=0;" edge="1" parent="1" source="iqAs6xTmjVzmR_10nm-_-64" target="iqAs6xTmjVzmR_10nm-_-60">
          <mxGeometry x="-1" y="3" relative="1" as="geometry">
            <mxPoint x="100" y="370" as="sourcePoint" />
            <mxPoint x="230" y="370" as="targetPoint" />
            <Array as="points">
              <mxPoint x="290" y="430" />
              <mxPoint x="160" y="430" />
            </Array>
          </mxGeometry>
        </mxCell>
        <mxCell id="iqAs6xTmjVzmR_10nm-_-79" value="" style="endArrow=none;html=1;endSize=12;startArrow=diamondThin;startSize=14;startFill=0;edgeStyle=orthogonalEdgeStyle;align=left;verticalAlign=bottom;rounded=0;endFill=0;" edge="1" parent="1" source="iqAs6xTmjVzmR_10nm-_-59">
          <mxGeometry x="-1" y="3" relative="1" as="geometry">
            <mxPoint x="350" y="360" as="sourcePoint" />
            <mxPoint x="160" y="450" as="targetPoint" />
            <Array as="points">
              <mxPoint x="460" y="450" />
            </Array>
          </mxGeometry>
        </mxCell>
      </root>
    </mxGraphModel>
  </diagram>
</mxfile>
